:SAMPLES-PER-SECOND 30
:FULLY-SPECIFIED
:DEGREES
482
root  -5.90953 40.8631 0.730944 143.907 -88.2254 -145.731
RightUpLeg  11.1072 -3.47907 -3.37602
RightLeg  -2.8538 -16.3297 1.0703
RightFoot  -0.80592 -0.676495 7.26773
RightToes  -3.10096e-008 1.75238e-005 3.56266e-009
Spine  -11.4546 -3.47598 -1.43158
Spine1  8.01175 -4.21918 3.15609
HEad  -11.6415 6.52075 -4.89183
LeftShoulder1  1.89813 -5.60157 -13.8906
LeftArm  -52.0015 -42.6143 -14.2141
LeftForeArm  32.8868 -69.1194 -27.1227
LeftHand  -0.877387 -5.90723 9.32415
RightShoulder  1.1707 2.61566 12.0842
RightArm  -57.5725 26.783 4.83079
RightForeArm  8.64675 73.5834 44.4127
RightHand  -0.488682 7.81535 -4.66237
LeftUpLeg  10.5913 2.24432 2.20055
LeftLeg  -3.71165 12.908 -1.45416
LeftFoot  -3.52242 0.101438 -1.24267
LeftToes  4.7633e-008 1.48299e-008 1.30754e-009
483
root  -5.89898 40.8697 0.817957 155.66 -87.0974 -156.59
RightUpLeg  9.9568 -3.25364 -3.33371
RightLeg  -2.93363 -15.5449 1.05668
RightFoot  -0.583886 -0.683544 7.20794
RightToes  -3.10096e-008 1.75238e-005 3.56266e-009
Spine  -9.33264 -3.93358 -2.4295
Spine1  3.99923 -4.82661 4.85112
HEad  -10.6933 8.12474 -3.90141
LeftShoulder1  1.41021 -4.61155 -10.0924
LeftArm  -59.6295 -48.2844 -7.65406
LeftForeArm  26.3312 -65.4718 -22.7047
LeftHand  -0.924383 -5.69892 9.98218
RightShoulder  0.930464 2.07572 9.32598
RightArm  -62.5384 29.2265 1.80796
RightForeArm  2.33231 71.9116 39.4269
RightHand  -0.74713 8.58758 -6.51279
LeftUpLeg  9.78318 2.1485 2.09571
LeftLeg  -3.83059 14.1134 -1.61281
LeftFoot  -3.50274 0.10329 -1.28069
LeftToes  4.7633e-008 1.48299e-008 1.30754e-009
484
root  -5.87828 40.8787 0.915898 163.083 -85.6196 -163.324
RightUpLeg  8.8731 -3.11831 -3.40093
RightLeg  -2.85369 -14.3963 0.976896
RightFoot  -0.36814 -0.680958 7.05344
RightToes  -3.10096e-008 1.75238e-005 3.56266e-009
Spine  -7.5207 -3.9533 -2.88695
Spine1  0.86945 -4.85695 5.84245
HEad  -9.07693 8.43385 -2.99934
LeftShoulder1  1.02656 -3.60206 -6.76331
LeftArm  -69.1471 -53.0993 0.76533
LeftForeArm  20.8848 -60.1121 -17.9868
LeftHand  -0.966183 -5.14176 10.9249
RightShoulder  0.639085 1.05483 6.33691
RightArm  -67.8728 30.6482 -1.03426
RightForeArm  -3.75549 68.9906 32.7856
RightHand  -1.01406 9.53284 -8.21115
LeftUpLeg  9.35604 1.98069 1.86233
LeftLeg  -4.26788 15.7244 -1.82637
LeftFoot  -3.39003 0.100797 -1.25059
LeftToes  4.7633e-008 1.48299e-008 1.30754e-009
485
root  -5.87699 40.8843 1.00212 164.824 -84.2431 -164.692
RightUpLeg  8.41339 -2.87711 -3.27602
RightLeg  -3.23608 -13.5342 0.977333
RightFoot  0.0061895 -0.707625 7.11328
RightToes  -3.10096e-008 1.75238e-005 3.56266e-009
Spine  -5.72495 -3.96498 -3.37685
Spine1  -1.78391 -4.87562 6.8345
HEad  -8.33049 9.1435 -1.21941
LeftShoulder1  0.654337 -2.17183 -3.50136
LeftArm  -79.4652 -56.8361 8.69987
LeftForeArm  17.8878 -54.0206 -14.0393
LeftHand  -0.911427 -4.45293 11.0287
RightShoulder  0.37557 -0.33814 3.91529
RightArm  -73.0475 31.9322 -3.28168
RightForeArm  -8.51827 65.149 26.6322
RightHand  -0.602891 7.66668 -5.74342
LeftUpLeg  9.15578 1.96614 1.8394
LeftLeg  -4.41886 17.0572 -1.94528
LeftFoot  -3.4239 0.101936 -1.2764
LeftToes  4.7633e-008 1.48299e-008 1.30754e-009
486
root  -5.89394 40.8793 1.07024 166.173 -82.9748 -165.866
RightUpLeg  8.09103 -2.65971 -3.19215
RightLeg  -3.3625 -12.6324 0.851312
RightFoot  0.201257 -0.726612 7.19308
RightToes  -3.10096e-008 1.75238e-005 3.56266e-009
Spine  -3.93323 -3.93429 -4.26563
Spine1  -4.24189 -4.88092 8.33226
HEad  -7.00397 10.2788 -0.0244825
LeftShoulder1  0.437249 -1.22803 -0.946449
LeftArm  -87.9294 -58.6236 13.9702
LeftForeArm  16.6757 -50.7236 -12.4263
LeftHand  -0.804309 -3.00072 11.3406
RightShoulder  0.191437 -1.59248 1.814
RightArm  -78.025 32.5996 -4.08647
RightForeArm  -10.5437 62.4721 23.4432
RightHand  -0.621865 7.90921 -5.78155
LeftUpLeg  9.13926 1.98981 1.79677
LeftLeg  -4.47085 18.319 -2.06158
LeftFoot  -3.54045 0.0969946 -1.20714
LeftToes  4.7633e-008 1.48299e-008 1.30754e-009
487
root  -5.90812 40.8697 1.14292 167.559 -81.7273 -167.221
RightUpLeg  7.76365 -2.49736 -3.1878
RightLeg  -3.15948 -11.6099 0.60091
RightFoot  0.206245 -0.735631 7.27931
RightToes  -3.10096e-008 1.75238e-005 3.56266e-009
Spine  -3.224 -3.83032 -5.32306
Spine1  -4.82708 -4.94039 10.124
HEad  -6.59553 10.8613 0.734094
LeftShoulder1  0.371037 -0.849701 -0.0908093
LeftArm  -94.368 -58.9265 17.5431
LeftForeArm  17.6484 -51.8716 -12.9234
LeftHand  -0.881686 -3.64458 11.5632
RightShoulder  0.0835506 -2.5648 0.65611
RightArm  -82.0198 32.529 -4.64654
RightForeArm  -12.5086 62.5819 23.7598
RightHand  -0.735848 8.56861 -6.47855
LeftUpLeg  9.25357 1.79342 1.51647
LeftLeg  -4.52905 19.8518 -1.98957
LeftFoot  -3.66732 0.0944125 -1.17402
LeftToes  4.7633e-008 1.48299e-008 1.30754e-009
488
root  -5.96547 40.8479 1.20283 167.717 -80.8702 -167.488
RightUpLeg  7.73535 -2.50636 -3.23595
RightLeg  -2.95085 -10.777 0.540287
RightFoot  0.0656528 -0.734552 7.3484
RightToes  -3.10096e-008 1.75238e-005 3.56266e-009
Spine  -3.74854 -4.12979 -5.93163
Spine1  -3.64567 -5.45279 11.1286
HEad  -6.30385 11.9052 1.88919
LeftShoulder1  0.347007 -0.577588 -0.0614115
LeftArm  -97.6309 -58.6996 17.9076
LeftForeArm  22.0278 -57.7029 -16.0345
LeftHand  -1.09272 -5.49957 11.9328
RightShoulder  0.0644548 -2.80268 0.91383
RightArm  -84.8318 31.3396 -4.41873
RightForeArm  -7.90908 66.067 27.9957
RightHand  -0.8373 9.00351 -7.11938
LeftUpLeg  9.51922 1.79507 1.42129
LeftLeg  -4.47182 20.7442 -1.96745
LeftFoot  -3.98026 0.0872721 -1.06953
LeftToes  4.7633e-008 1.48299e-008 1.30754e-009
489
root  -6.03618 40.8187 1.24421 167.932 -80.0869 -168.135
RightUpLeg  8.12723 -2.53144 -3.29377
RightLeg  -2.81144 -9.96675 0.402047
RightFoot  -0.239161 -0.704686 7.22391
RightToes  -3.10096e-008 1.75238e-005 3.56266e-009
Spine  -4.36915 -4.4229 -6.70155
Spine1  -1.88119 -6.06693 12.3393
HEad  -5.79214 12.8997 2.4552
LeftShoulder1  0.373641 -0.45185 -1.18376
LeftArm  -97.1867 -58.1412 14.7017
LeftForeArm  29.0393 -67.5823 -25.6025
LeftHand  -1.04684 -5.40134 11.5268
RightShoulder  0.0662428 -2.86722 2.43198
RightArm  -86.3317 29.8503 -3.49552
RightForeArm  3.67806 72.3671 41.092
RightHand  -0.790314 9.06528 -6.71611
LeftUpLeg  10.063 1.88814 1.34017
LeftLeg  -4.20602 21.4154 -1.90914
LeftFoot  -4.3744 0.0991868 -1.2607
LeftToes  4.7633e-008 1.48299e-008 1.30754e-009
490
root  -6.10999 40.7786 1.2792 168.216 -79.2655 -168.792
RightUpLeg  8.47756 -2.44235 -3.31068
RightLeg  -2.68326 -9.24391 0.186012
RightFoot  -0.62672 -0.680949 7.20629
RightToes  -3.10096e-008 1.75238e-005 3.56266e-009
Spine  -5.80838 -4.75221 -7.20165
Spine1  1.16978 -6.83458 13.1152
HEad  -5.5065 13.224 2.42805
LeftShoulder1  0.492188 -0.666395 -3.67168
LeftArm  -95.2452 -56.4083 11.4767
LeftForeArm  55.19 -77.6756 -56.0707
LeftHand  -0.921926 -4.66905 10.9015
RightShoulder  0.125253 -2.55055 5.3
RightArm  -88.1314 28.3958 -2.552
RightForeArm  35.7165 77.8139 75.0224
RightHand  -0.663698 9.2596 -5.63601
LeftUpLeg  10.44 1.99858 1.24334
LeftLeg  -3.69618 22.1356 -1.75408
LeftFoot  -4.82368 0.10192 -1.30866
LeftToes  4.7633e-008 1.48299e-008 1.30754e-009
491
root  -6.22315 40.7385 1.3074 168.71 -78.5269 -169.641
RightUpLeg  8.84009 -2.46206 -3.44587
RightLeg  -2.48689 -8.47412 -0.00565935
RightFoot  -1.08894 -0.661447 7.28024
RightToes  -3.10096e-008 1.75238e-005 3.56266e-009
Spine  -7.584 -5.14593 -8.02934
Spine1  4.25177 -7.76484 14.446
HEad  -5.46683 14.3496 1.79341
LeftShoulder1  0.803373 -2.14406 -6.55772
LeftArm  -91.7404 -51.6643 7.34834
LeftForeArm  120.037 -77.492 -124.511
LeftHand  -1.12939 -6.56736 11.2914
RightShoulder  0.321026 -1.43866 8.10249
RightArm  -88.3199 25.0682 -1.75673
RightForeArm  80.9821 76.0586 122.447
RightHand  -0.666194 9.34171 -5.59657
LeftUpLeg  10.9347 2.1307 1.11675
LeftLeg  -3.39598 22.7717 -1.75469
LeftFoot  -5.25785 0.10203 -1.31536
LeftToes  4.7633e-008 1.48299e-008 1.30754e-009
492
root  -6.33159 40.7091 1.326 169.232 -77.651 -170.568
RightUpLeg  9.25669 -2.47951 -3.57915
RightLeg  -2.3935 -7.55708 -0.224497
RightFoot  -1.39015 -0.646814 7.30978
RightToes  -3.10096e-008 1.75238e-005 3.56266e-009
Spine  -9.20828 -5.50964 -8.43954
Spine1  7.04588 -8.61768 15.3562
HEad  -5.3785 15.4874 1.27524
LeftShoulder1  0.948508 -2.30137 -8.96904
LeftArm  -88.0362 -47.0379 1.75267
LeftForeArm  147.833 -66.4173 -155.178
LeftHand  -1.19348 -8.35534 10.4041
RightShoulder  0.597587 -0.161442 10.7123
RightArm  -88.1916 21.7572 -0.0508633
RightForeArm  104.025 68.6301 147.266
RightHand  -0.955982 10.38 -7.43223
LeftUpLeg  11.678 2.21047 0.946634
LeftLeg  -3.53099 23.6142 -1.90813
LeftFoot  -5.46801 0.0916813 -1.15902
LeftToes  4.7633e-008 1.48299e-008 1.30754e-009
493
root  -6.45017 40.6814 1.35191 168.984 -77.3736 -170.71
RightUpLeg  9.92288 -2.62284 -3.74217
RightLeg  -2.57827 -7.04522 -0.21622
RightFoot  -1.59229 -0.630442 7.2551
RightToes  -3.10096e-008 1.75238e-005 3.56266e-009
Spine  -10.5382 -5.98004 -8.41987
Spine1  9.60853 -9.4629 15.4522
HEad  -5.73025 15.7755 1.62138
LeftShoulder1  0.924957 -1.58958 -10.8692
LeftArm  -85.1348 -43.9996 -3.71305
LeftForeArm  154.266 -55.4404 -164.462
LeftHand  -1.02579 -8.81188 8.75004
RightShoulder  0.826789 0.616457 13.1948
RightArm  -88.2628 18.6838 1.86328
RightForeArm  111.249 60.4834 157.661
RightHand  -0.862968 10.5634 -6.65235
LeftUpLeg  12.2242 2.19711 0.803223
LeftLeg  -3.33373 23.9356 -1.73451
LeftFoot  -5.72532 0.101846 -1.32105
LeftToes  4.7633e-008 1.48299e-008 1.30754e-009
494
root  -6.5535 40.6531 1.37363 168.828 -76.9748 -170.963
RightUpLeg  10.4985 -2.73099 -3.88842
RightLeg  -2.61615 -6.4899 -0.276744
RightFoot  -1.82174 -0.621829 7.30815
RightToes  -3.10096e-008 1.75238e-005 3.56266e-009
Spine  -11.4355 -6.15525 -8.38978
Spine1  11.3747 -9.92081 15.5735
HEad  -5.69137 16.3049 2.53171
LeftShoulder1  1.17521 -2.29443 -13.2711
LeftArm  -84.5167 -40.3832 -4.55962
LeftForeArm  153.975 -51.2342 -166.361
LeftHand  -0.83308 -9.72826 6.77226
RightShoulder  0.890225 0.673964 14.5285
RightArm  -88.2269 17.4444 3.23386
RightForeArm  116.225 55.323 161.694
RightHand  -0.632222 10.2918 -5.08945
LeftUpLeg  12.9707 2.33617 0.771284
LeftLeg  -3.54307 24.1908 -1.89191
LeftFoot  -5.90873 0.0986067 -1.2743
LeftToes  4.7633e-008 1.48299e-008 1.30754e-009
495
root  -6.68206 40.6374 1.38968 168.259 -76.6301 -170.708
RightUpLeg  11.0131 -2.79366 -3.91641
RightLeg  -2.67636 -6.04413 -0.296943
RightFoot  -1.84662 -0.621981 7.32729
RightToes  -3.10096e-008 1.75238e-005 3.56266e-009
Spine  -12.5542 -6.25075 -8.03482
Spine1  12.7115 -10.1503 15.369
HEad  -5.04482 16.2211 3.44128
LeftShoulder1  1.32203 -2.89947 -13.7003
LeftArm  -82.5086 -37.5034 -5.781
LeftForeArm  153.416 -54.7497 -164.49
LeftHand  -0.807385 -9.80154 6.58301
RightShoulder  0.890862 0.685338 14.4785
RightArm  -87.745 17.2309 3.48041
RightForeArm  124.205 54.4191 162.654
RightHand  -0.537232 11.0972 -4.18632
LeftUpLeg  13.6608 2.4414 0.817469
LeftLeg  -3.78997 24.4355 -1.9965
LeftFoot  -6.04867 0.0917585 -1.17101
LeftToes  4.7633e-008 1.48299e-008 1.30754e-009
496
root  -6.7725 40.6474 1.40155 167.909 -76.7472 -170.433
RightUpLeg  11.1547 -2.87104 -3.94291
RightLeg  -2.53965 -6.15652 -0.295768
RightFoot  -1.68937 -0.643619 7.4752
RightToes  -3.10096e-008 1.75238e-005 3.56266e-009
Spine  -12.6928 -6.30018 -7.91353
Spine1  11.9526 -10.0961 15.4816
HEad  -3.17631 15.9978 4.5213
LeftShoulder1  1.19837 -2.66968 -12.2779
LeftArm  -78.6499 -36.2217 -7.90013
LeftForeArm  150.26 -63.0996 -158.481
LeftHand  -1.08294 -8.20714 9.57383
RightShoulder  0.818242 0.607655 12.9686
RightArm  -86.5525 17.3612 3.1173
RightForeArm  126.465 57.0277 161.121
RightHand  -0.746406 10.8274 -5.72888
LeftUpLeg  13.8852 2.43692 0.832058
LeftLeg  -3.84046 24.3277 -1.99695
LeftFoot  -6.00642 0.0912842 -1.16636
LeftToes  4.7633e-008 1.48299e-008 1.30754e-009
